Coordinates
version=1
nRows=10
nColumns=40
inDegrees=yes

Units are S.I. units (second, meters, Newtons, ...)
If the header above contains a line with 'inDegrees', this indicates whether rotational values are in degrees (yes) or radians (no).

endheader
time	pelvis_tilt	pelvis_list	pelvis_rotation	pelvis_tx	pelvis_ty	pelvis_tz	hip_flexion_r	hip_adduction_r	hip_rotation_r	knee_angle_r	knee_angle_r_beta	ankle_angle_r	subtalar_angle_r	mtp_angle_r	hip_flexion_l	hip_adduction_l	hip_rotation_l	knee_angle_l	knee_angle_l_beta	ankle_angle_l	subtalar_angle_l	mtp_angle_l	lumbar_extension	lumbar_bending	lumbar_rotation	arm_flex_r	arm_add_r	arm_rot_r	elbow_flex_r	pro_sup_r	wrist_flex_r	wrist_dev_r	arm_flex_l	arm_add_l	arm_rot_l	elbow_flex_l	pro_sup_l	wrist_flex_l	wrist_dev_l
      3.68000000	     -9.03186738	      1.13574149	      0.46353208	     -0.16944494	      1.21464245	     -0.92604268	      6.71877626	     -2.55400358	    -21.71502222	      6.34260527	      0.11069935	    -38.65067449	      0.00000000	      0.00000000	      5.39509411	     -1.11387289	    -23.16334923	      6.34691584	      0.11077458	    -39.07251868	      0.00000000	      0.00000000	     -2.33670538	      3.11388284	     -7.35675825	    -20.42338979	    -38.74805673	     37.61541433	     83.46592761	     86.17396398	      0.00000000	      0.00000000	    -18.14194822	    -46.52932116	     47.40567620	     88.81940454	     87.20876125	      0.00000000	      0.00000000
      3.68500000	     -8.84457232	      1.11619647	      0.69735518	     -0.16739672	      1.22133637	     -0.92621573	      6.14913229	     -2.39704512	    -22.40137593	      5.96604963	      0.10412721	    -38.40334475	      0.00000000	      0.00000000	      4.79589896	     -0.96827443	    -23.72710493	      5.94567794	      0.10377166	    -38.90027979	      0.00000000	      0.00000000	     -2.11375576	      3.21197191	     -7.72730437	    -20.26732362	    -38.65590608	     37.87747068	     83.20367938	     86.18184377	      0.00000000	      0.00000000	    -18.00074743	    -46.22839184	     47.83496460	     88.11680167	     87.20401566	      0.00000000	      0.00000000
      3.69000000	     -8.41608658	      1.07514953	      0.46067010	     -0.16512294	      1.22798805	     -0.92561727	      5.47474877	     -2.22585348	    -23.25731493	      5.81346866	      0.10146417	    -38.35392744	      0.00000000	      0.00000000	      3.79285485	     -0.91371625	    -24.91927475	      5.44168226	      0.09497527	    -38.83018587	      0.00000000	      0.00000000	     -2.12796261	      3.30868646	     -7.58196478	    -20.01290926	    -38.67392675	     38.40857889	     82.94945532	     86.19426390	      0.00000000	      0.00000000	    -17.73959131	    -45.93994862	     48.27734614	     87.41532216	     87.16073830	      0.00000000	      0.00000000
      3.69500000	     -8.02277236	      1.16141097	      0.26166706	     -0.16304366	      1.23463386	     -0.92546752	      4.86715241	     -2.25647776	    -24.14516900	      5.74713996	      0.10030651	    -38.25110411	      0.00000000	      0.00000000	      2.90855456	     -0.72047718	    -26.43792347	      5.05285121	      0.08818889	    -38.74568510	      0.00000000	      0.00000000	     -2.15612884	      3.30261465	     -7.51394531	    -19.80654984	    -38.64396005	     38.67030837	     82.72683876	     86.18799944	      0.00000000	      0.00000000	    -17.56820818	    -45.57040646	     48.50699300	     86.76553785	     87.13884795	      0.00000000	      0.00000000
      3.70000000	     -7.76434437	      1.20172377	      0.23643111	     -0.16120857	      1.24081825	     -0.92578806	      4.44321874	     -2.31853391	    -25.21811974	      5.83364100	      0.10181624	    -38.11824471	      0.00000000	      0.00000000	      2.27571737	     -0.57589054	    -27.93015422	      4.87132861	      0.08502072	    -38.64526268	      0.00000000	      0.00000000	     -2.04440570	      3.39512574	     -7.58568506	    -19.74370441	    -38.64587687	     38.67021281	     82.66946776	     86.17515405	      0.00000000	      0.00000000	    -17.47617390	    -45.14519862	     48.55093145	     86.11192878	     87.12262638	      0.00000000	      0.00000000
      3.70500000	     -7.37351963	      1.24691257	      0.10896017	     -0.15926170	      1.24697457	     -0.92594378	      3.91356781	     -2.39203932	    -26.17944615	      6.02902710	      0.10522637	    -38.09494753	      0.00000000	      0.00000000	      1.50261254	     -0.47264244	    -29.49685991	      4.76264708	      0.08312387	    -38.50323961	      0.00000000	      0.00000000	     -2.07569878	      3.47262846	     -7.57444838	    -19.76870062	    -38.63166948	     38.44063353	     82.68289475	     86.12965228	      0.00000000	      0.00000000	    -17.47539538	    -44.76861022	     48.45819834	     85.62328528	     87.12027008	      0.00000000	      0.00000000
      3.71000000	     -7.07066756	      1.15905678	      0.08536813	     -0.15779991	      1.25276705	     -0.92639049	      3.53476776	     -2.36149652	    -27.12379090	      6.29220735	      0.10981974	    -38.07975890	      0.00000000	      0.00000000	      0.91550977	     -0.50989347	    -30.64190161	      4.75877182	      0.08305624	    -38.35567497	      0.00000000	      0.00000000	     -2.09244375	      3.71738854	     -7.65534002	    -19.79219481	    -38.67100995	     38.14312778	     82.84322244	     86.10068868	      0.00000000	      0.00000000	    -17.38936322	    -44.33151287	     48.27702997	     85.11786084	     87.11613104	      0.00000000	      0.00000000
      3.71500000	     -6.74265129	      1.16832377	     -0.17049474	     -0.15586886	      1.25833047	     -0.92682520	      3.16372362	     -2.45949089	    -27.58161600	      6.67447171	      0.11649151	    -38.14523925	      0.00000000	      0.00000000	      0.22953489	     -0.43065566	    -31.90515190	      4.76883542	      0.08323188	    -38.24910258	      0.00000000	      0.00000000	     -2.09171946	      3.87153042	     -7.47970632	    -19.98011819	    -38.84022477	     37.78021613	     83.15336237	     86.08290982	      0.00000000	      0.00000000	    -17.43759335	    -43.88454268	     48.01951043	     84.66141258	     87.13085151	      0.00000000	      0.00000000
      3.72000000	     -6.72163054	      1.17295846	     -0.21699330	     -0.15477246	      1.26337427	     -0.92697037	      3.04527993	     -2.44333827	    -27.55393347	      6.74136925	      0.11765909	    -38.18125207	      0.00000000	      0.00000000	     -0.00398145	     -0.39904948	    -31.92259870	      4.83957413	      0.08446650	    -38.27571910	      0.00000000	      0.00000000	     -1.77681178	      3.94704326	     -7.52378118	    -19.93624603	    -38.83015505	     37.71764503	     83.17581095	     86.07877183	      0.00000000	      0.00000000	    -17.38932023	    -43.84081550	     47.97916439	     84.66567284	     87.12887911	      0.00000000	      0.00000000
      3.72500000	     -6.31528331	      1.05597630	     -0.37576483	     -0.15390428	      1.26861899	     -0.92723966	      2.79069589	     -2.40213940	    -26.80263422	      7.37736031	      0.12875923	    -38.29498771	      0.00000000	      0.00000000	     -0.51477024	     -0.58374108	    -32.33564731	      5.26759249	      0.09193683	    -38.28786234	      0.00000000	      0.00000000	     -2.08610356	      4.23563220	     -7.48329710	    -20.10714695	    -38.94534175	     36.97531316	     83.69282347	     86.05301083	      0.00000000	      0.00000000	    -17.39718598	    -43.29648789	     47.45107952	     84.10193876	     87.12894793	      0.00000000	      0.00000000
